<?xml version="1.0" encoding="UTF-8"?>
<svg version="1.1" viewBox="0 0 2000 2000" width="100" height="30" xmlns="http://www.w3.org/2000/svg">
<path transform="translate(0)" d="m0 0h2e3v2e3h-2e3z" fill="#FEFFFE"/>
<path transform="translate(260,1123)" d="m0 0h799l1 1v54l-1 1h-797l-3-1v-54z" fill="#030208"/>
<path transform="translate(1382,960)" d="m0 0h100l20 3 16 5 13 6 11 6 13 11 10 11 10 16 6 13 4 13 3 19v17l-2 15-4 15-6 15-8 13-9 11-8 8-16 11-15 7-21 6-21 3h-96l-1-1v-222z" fill="#4644D6"/>
<path transform="translate(354,803)" d="m0 0h14l18 2 17 4 15 6 13 7 12 9 13 13 10 15 10 21v1h-55l-15-16-13-8-12-4-5-1h-24l-12 3-12 6-10 8-8 9-7 14-3 10-1 8v20l4 17 5 11 6 9 8 8 14 8 13 4 6 1h21l15-4 12-6 8-6 9-13 5-10v-4h-33l-38-1v-39l41-1h85l1 1v19l-2 19-5 19-7 16-7 11-7 9-9 10-13 10-19 10-20 6-10 2-22 1-20-2-19-5-21-10-14-10-12-12-11-15-8-16-5-14-3-15-1-9v-17l3-20 5-17 8-16 7-11 11-13 12-10 15-9 19-8 12-3z" fill="#4644D6"/>
<path transform="translate(849,808)" d="m0 0h42l8 10 12 17 13 18 14 19 13 18 10 14 14 19 8 11 3 4v2l3 1v-132l1-1h49l1 1v222l-1 1h-41l-8-9-13-18-12-17-13-18-10-14-12-17-12-16-13-18-5-7-1 126-1 8h-49l-1-1v-222z" fill="#4644D6"/>
<path transform="translate(1100,807)" d="m0 0h494l1 1v53l-92 1h-327l-76-1-1-3z" fill="#030208"/>
<path transform="translate(588,808)" d="m0 0h145l1 1v22l-1 20h-96v46h88v42l-4 1h-80l-4-1 1 49h94l5 1v43h-150v-223z" fill="#4644D6"/>
<path transform="translate(1122,960)" d="m0 0h145l1 1v19l-1 23h-96l1 45 87 1v42l-4 1h-83v48h96l3 1v42l-1 1h-129l-20-1v-222z" fill="#4644D6"/>
<path transform="translate(1432,1007)" d="m0 0h45l15 3 16 8 9 7 7 8 7 14 3 11 1 7v15l-3 14-5 12-8 11-9 8-16 8-13 3-8 1h-41l-1-15v-109z" fill="#FEFFFE"/>
</svg>
